<mxfile host="65bd71144e">
    <diagram id="YJUcTYqen7Jrd-R3CdqB" name="Page-1">
        <mxGraphModel dx="3816" dy="1425" grid="1" gridSize="10" guides="1" tooltips="1" connect="1" arrows="1" fold="1" page="1" pageScale="1" pageWidth="1169" pageHeight="827" background="#FFFFFF" math="0" shadow="0">
            <root>
                <mxCell id="0"/>
                <mxCell id="1" parent="0"/>
                <mxCell id="2" value="Visiteur" style="shape=umlActor;verticalLabelPosition=bottom;verticalAlign=top;html=1;fillColor=#f0a30a;fontColor=#000000;strokeColor=#BD7000;" parent="1" vertex="1">
                    <mxGeometry x="-1120" y="220" width="40" height="80" as="geometry"/>
                </mxCell>
                <mxCell id="6" value="&lt;font style=&quot;font-size: 14px;&quot;&gt;Découvrir la liste des véhicules d'occasion&lt;/font&gt;" style="ellipse;whiteSpace=wrap;html=1;fontFamily=Tahoma;fontSize=20;fillColor=#f0a30a;fontColor=#000000;strokeColor=#BD7000;" parent="1" vertex="1">
                    <mxGeometry x="-920" y="150" width="140" height="110" as="geometry"/>
                </mxCell>
                <mxCell id="7" value="" style="endArrow=none;html=1;fontFamily=Tahoma;fontSize=14;exitX=0.75;exitY=0.1;exitDx=0;exitDy=0;exitPerimeter=0;fontColor=#000000;labelBackgroundColor=#000000;strokeColor=#000000;" parent="1" source="2" target="6" edge="1">
                    <mxGeometry width="50" height="50" relative="1" as="geometry">
                        <mxPoint x="-1100" y="260" as="sourcePoint"/>
                        <mxPoint x="-1050" y="210" as="targetPoint"/>
                    </mxGeometry>
                </mxCell>
                <mxCell id="8" value="Se rendre sur le site web du garage" style="ellipse;whiteSpace=wrap;html=1;fontFamily=Tahoma;fontSize=14;fillColor=#f0a30a;fontColor=#000000;strokeColor=#BD7000;" parent="1" vertex="1">
                    <mxGeometry x="-550" y="155" width="140" height="100" as="geometry"/>
                </mxCell>
                <mxCell id="10" value="&amp;lt;&amp;lt;include&amp;gt;&amp;gt;" style="html=1;verticalAlign=bottom;labelBackgroundColor=none;endArrow=open;endFill=0;dashed=1;fontFamily=Tahoma;fontSize=14;entryX=0;entryY=0.5;entryDx=0;entryDy=0;exitX=1;exitY=0.5;exitDx=0;exitDy=0;fontColor=#000000;strokeColor=#000000;" parent="1" source="6" target="8" edge="1">
                    <mxGeometry width="160" relative="1" as="geometry">
                        <mxPoint x="-810" y="180" as="sourcePoint"/>
                        <mxPoint x="-710" y="184.5" as="targetPoint"/>
                    </mxGeometry>
                </mxCell>
                <mxCell id="11" value="Filtrer selon ses critères" style="ellipse;whiteSpace=wrap;html=1;fontFamily=Tahoma;fontSize=14;fillColor=#f0a30a;fontColor=#000000;strokeColor=#BD7000;" parent="1" vertex="1">
                    <mxGeometry x="-915" y="320" width="130" height="90" as="geometry"/>
                </mxCell>
                <mxCell id="12" value="" style="endArrow=none;html=1;fontFamily=Tahoma;fontSize=14;entryX=0;entryY=0.5;entryDx=0;entryDy=0;exitX=1;exitY=0.3333333333333333;exitDx=0;exitDy=0;exitPerimeter=0;fontColor=#FFFFFF;strokeColor=#000000;" parent="1" source="2" target="11" edge="1">
                    <mxGeometry width="50" height="50" relative="1" as="geometry">
                        <mxPoint x="-1100" y="280" as="sourcePoint"/>
                        <mxPoint x="-1000" y="340" as="targetPoint"/>
                    </mxGeometry>
                </mxCell>
                <mxCell id="13" value="Remplir le formulaire&amp;nbsp;" style="ellipse;whiteSpace=wrap;html=1;fontFamily=Tahoma;fontSize=14;fillColor=#f0a30a;fontColor=#000000;strokeColor=#BD7000;" parent="1" vertex="1">
                    <mxGeometry x="-920" y="560" width="140" height="100" as="geometry"/>
                </mxCell>
                <mxCell id="14" value="" style="endArrow=none;html=1;fontFamily=Tahoma;fontSize=14;entryX=0;entryY=0.5;entryDx=0;entryDy=0;exitX=1;exitY=1;exitDx=0;exitDy=0;exitPerimeter=0;fontColor=#FFFFFF;shadow=1;strokeColor=#000000;" parent="1" source="2" target="13" edge="1">
                    <mxGeometry width="50" height="50" relative="1" as="geometry">
                        <mxPoint x="-1100" y="300" as="sourcePoint"/>
                        <mxPoint x="-1030" y="365" as="targetPoint"/>
                    </mxGeometry>
                </mxCell>
                <mxCell id="15" value="&amp;lt;&amp;lt;extend&amp;gt;&amp;gt;" style="html=1;verticalAlign=bottom;labelBackgroundColor=none;endArrow=open;endFill=0;dashed=1;fontFamily=Tahoma;fontSize=14;exitX=0.5;exitY=1;exitDx=0;exitDy=0;fontColor=#000000;strokeColor=#1A1A1A;" parent="1" source="11" target="13" edge="1">
                    <mxGeometry width="160" relative="1" as="geometry">
                        <mxPoint x="-820" y="340" as="sourcePoint"/>
                        <mxPoint x="-660" y="340" as="targetPoint"/>
                    </mxGeometry>
                </mxCell>
                <mxCell id="16" value="Avoir cliqué sur le lien qui emmène vers le formulaire" style="ellipse;whiteSpace=wrap;html=1;fontFamily=Tahoma;fontSize=14;fillColor=#f0a30a;fontColor=#000000;strokeColor=#BD7000;" parent="1" vertex="1">
                    <mxGeometry x="-570" y="560" width="160" height="100" as="geometry"/>
                </mxCell>
                <mxCell id="17" value="&amp;lt;&amp;lt;include&amp;gt;&amp;gt;" style="html=1;verticalAlign=bottom;labelBackgroundColor=none;endArrow=open;endFill=0;dashed=1;fontFamily=Tahoma;fontSize=14;exitX=1;exitY=0.5;exitDx=0;exitDy=0;entryX=0;entryY=0.5;entryDx=0;entryDy=0;fontColor=#000000;strokeColor=#000000;" parent="1" source="13" target="16" edge="1">
                    <mxGeometry width="160" relative="1" as="geometry">
                        <mxPoint x="-770" y="429.5" as="sourcePoint"/>
                        <mxPoint x="-660" y="430" as="targetPoint"/>
                    </mxGeometry>
                </mxCell>
                <mxCell id="21" value="" style="endArrow=none;dashed=1;html=1;fontFamily=Tahoma;fontSize=14;entryX=0;entryY=0.429;entryDx=0;entryDy=0;entryPerimeter=0;fontColor=#FFFFFF;strokeColor=#000000;" parent="1" target="70" edge="1">
                    <mxGeometry width="50" height="50" relative="1" as="geometry">
                        <mxPoint x="-800" y="480" as="sourcePoint"/>
                        <mxPoint x="-630" y="400" as="targetPoint"/>
                    </mxGeometry>
                </mxCell>
                <mxCell id="22" value="Envoyer un avis client" style="ellipse;whiteSpace=wrap;html=1;fontFamily=Tahoma;fontSize=14;fillColor=#f0a30a;fontColor=#000000;strokeColor=#BD7000;" parent="1" vertex="1">
                    <mxGeometry x="-1070" y="710" width="120" height="80" as="geometry"/>
                </mxCell>
                <mxCell id="23" value="" style="endArrow=none;html=1;fontFamily=Tahoma;fontSize=14;exitX=0;exitY=0;exitDx=0;exitDy=0;entryX=0;entryY=1;entryDx=0;entryDy=0;entryPerimeter=0;labelBackgroundColor=#FFFFFF;strokeColor=#000000;" parent="1" source="22" target="2" edge="1">
                    <mxGeometry width="50" height="50" relative="1" as="geometry">
                        <mxPoint x="-770" y="540" as="sourcePoint"/>
                        <mxPoint x="-1120" y="330" as="targetPoint"/>
                    </mxGeometry>
                </mxCell>
                <mxCell id="30" value="Administateur" style="shape=umlActor;verticalLabelPosition=bottom;verticalAlign=top;html=1;strokeColor=#006EAF;fontFamily=Tahoma;fontSize=14;fontColor=#000000;fillColor=#1ba1e2;" parent="1" vertex="1">
                    <mxGeometry x="1060" y="220" width="50" height="110" as="geometry"/>
                </mxCell>
                <mxCell id="31" value="Créer un compte employé" style="ellipse;whiteSpace=wrap;html=1;strokeColor=#006EAF;fontFamily=Tahoma;fontSize=14;fontColor=#000000;fillColor=#1ba1e2;" parent="1" vertex="1">
                    <mxGeometry x="524" y="140" width="120" height="80" as="geometry"/>
                </mxCell>
                <mxCell id="32" value="" style="endArrow=none;html=1;fontFamily=Tahoma;fontSize=14;fontColor=#080808;entryX=0;entryY=0.3333333333333333;entryDx=0;entryDy=0;entryPerimeter=0;exitX=1;exitY=0.5;exitDx=0;exitDy=0;strokeColor=#000000;" parent="1" source="31" target="30" edge="1">
                    <mxGeometry width="50" height="50" relative="1" as="geometry">
                        <mxPoint x="880" y="390" as="sourcePoint"/>
                        <mxPoint x="930" y="340" as="targetPoint"/>
                    </mxGeometry>
                </mxCell>
                <mxCell id="33" value="Se connecter à une interface d'administration" style="ellipse;whiteSpace=wrap;html=1;strokeColor=#6F0000;fontFamily=Tahoma;fontSize=14;fontColor=#000000;fillColor=#a20025;" parent="1" vertex="1">
                    <mxGeometry x="60" y="440" width="150" height="110" as="geometry"/>
                </mxCell>
                <mxCell id="34" value="&lt;font&gt;&amp;lt;&amp;lt;include&amp;gt;&amp;gt;&lt;/font&gt;" style="html=1;verticalAlign=bottom;labelBackgroundColor=none;endArrow=open;endFill=0;dashed=1;fontFamily=Tahoma;fontSize=14;fontColor=#000000;exitX=0;exitY=0.5;exitDx=0;exitDy=0;entryX=0.5;entryY=0;entryDx=0;entryDy=0;strokeColor=#000000;" parent="1" source="31" target="33" edge="1">
                    <mxGeometry width="160" relative="1" as="geometry">
                        <mxPoint x="410" y="350" as="sourcePoint"/>
                        <mxPoint x="570" y="350" as="targetPoint"/>
                    </mxGeometry>
                </mxCell>
                <mxCell id="35" value="Présentataion des services" style="ellipse;whiteSpace=wrap;html=1;strokeColor=#006EAF;fontFamily=Tahoma;fontSize=14;fontColor=#000000;fillColor=#1ba1e2;" parent="1" vertex="1">
                    <mxGeometry x="800" y="790" width="140" height="100" as="geometry"/>
                </mxCell>
                <mxCell id="36" value="" style="endArrow=none;html=1;fontFamily=Tahoma;fontSize=14;fontColor=#f6eeee;exitX=1;exitY=0.5;exitDx=0;exitDy=0;shadow=1;strokeColor=#000000;" parent="1" source="35" target="30" edge="1">
                    <mxGeometry width="50" height="50" relative="1" as="geometry">
                        <mxPoint x="900" y="360" as="sourcePoint"/>
                        <mxPoint x="950" y="310" as="targetPoint"/>
                    </mxGeometry>
                </mxCell>
                <mxCell id="37" value="Gestion des horaires d'ouverture" style="ellipse;whiteSpace=wrap;html=1;strokeColor=#006EAF;fontFamily=Tahoma;fontSize=14;fontColor=#000000;fillColor=#1ba1e2;" parent="1" vertex="1">
                    <mxGeometry x="610" y="280" width="120" height="80" as="geometry"/>
                </mxCell>
                <mxCell id="38" value="" style="endArrow=none;html=1;fontFamily=Tahoma;fontSize=14;fontColor=#f6eeee;exitX=1;exitY=0.5;exitDx=0;exitDy=0;strokeColor=#000000;" parent="1" source="37" edge="1">
                    <mxGeometry width="50" height="50" relative="1" as="geometry">
                        <mxPoint x="900" y="540" as="sourcePoint"/>
                        <mxPoint x="1060" y="290" as="targetPoint"/>
                    </mxGeometry>
                </mxCell>
                <mxCell id="39" value="- Ajouter&amp;nbsp;&lt;br&gt;- Modifier&amp;nbsp;&lt;br&gt;- Supprimer" style="ellipse;whiteSpace=wrap;html=1;strokeColor=#006EAF;fontFamily=Tahoma;fontSize=14;fontColor=#000000;fillColor=#1ba1e2;" parent="1" vertex="1">
                    <mxGeometry x="464" y="500" width="120" height="80" as="geometry"/>
                </mxCell>
                <mxCell id="40" value="&amp;lt;&amp;lt;extend&amp;gt;&amp;gt;" style="html=1;verticalAlign=bottom;labelBackgroundColor=none;endArrow=open;endFill=0;dashed=1;fontFamily=Tahoma;fontSize=14;fontColor=#000000;exitX=0;exitY=1;exitDx=0;exitDy=0;entryX=1;entryY=0;entryDx=0;entryDy=0;strokeColor=#000000;" parent="1" source="37" target="39" edge="1">
                    <mxGeometry width="160" relative="1" as="geometry">
                        <mxPoint x="790" y="420" as="sourcePoint"/>
                        <mxPoint x="950" y="420" as="targetPoint"/>
                    </mxGeometry>
                </mxCell>
                <mxCell id="41" value="&amp;lt;&amp;lt;extend&amp;gt;&amp;gt;" style="html=1;verticalAlign=bottom;labelBackgroundColor=none;endArrow=open;endFill=0;dashed=1;fontFamily=Tahoma;fontSize=14;fontColor=#000000;exitX=0;exitY=0;exitDx=0;exitDy=0;entryX=1;entryY=1;entryDx=0;entryDy=0;strokeColor=#000000;" parent="1" source="35" target="39" edge="1">
                    <mxGeometry width="160" relative="1" as="geometry">
                        <mxPoint x="790" y="420" as="sourcePoint"/>
                        <mxPoint x="950" y="420" as="targetPoint"/>
                    </mxGeometry>
                </mxCell>
                <mxCell id="42" value="Employés" style="shape=umlActor;verticalLabelPosition=bottom;verticalAlign=top;html=1;strokeColor=#FF66FF;fontFamily=Tahoma;fontSize=14;fontColor=#000000;fillColor=#FF66FF;" parent="1" vertex="1">
                    <mxGeometry x="1020" y="1140" width="40" height="80" as="geometry"/>
                </mxCell>
                <mxCell id="45" value="Gestion des véhicules d'occasions" style="ellipse;whiteSpace=wrap;html=1;strokeColor=#FF66FF;fontFamily=Tahoma;fontSize=14;fontColor=#000000;fillColor=#FF66FF;" parent="1" vertex="1">
                    <mxGeometry x="560" y="1150" width="120" height="80" as="geometry"/>
                </mxCell>
                <mxCell id="46" value="" style="endArrow=none;html=1;fontFamily=Tahoma;fontSize=14;fontColor=#f6eeee;entryX=0.5;entryY=0.5;entryDx=0;entryDy=0;entryPerimeter=0;exitX=1;exitY=0.5;exitDx=0;exitDy=0;strokeColor=#000000;" parent="1" source="45" target="42" edge="1">
                    <mxGeometry width="50" height="50" relative="1" as="geometry">
                        <mxPoint x="820" y="910" as="sourcePoint"/>
                        <mxPoint x="870" y="860" as="targetPoint"/>
                    </mxGeometry>
                </mxCell>
                <mxCell id="47" value="- Ajouter&amp;nbsp;&lt;br&gt;-Modifier&amp;nbsp;&lt;br&gt;- Supprimer" style="ellipse;whiteSpace=wrap;html=1;strokeColor=#FF66FF;fontFamily=Tahoma;fontSize=14;fontColor=#000000;fillColor=#FF66FF;" parent="1" vertex="1">
                    <mxGeometry x="550" y="895" width="120" height="80" as="geometry"/>
                </mxCell>
                <mxCell id="48" value="&amp;lt;&amp;lt;extend&amp;gt;&amp;gt;" style="html=1;verticalAlign=bottom;labelBackgroundColor=none;endArrow=open;endFill=0;dashed=1;fontFamily=Tahoma;fontSize=14;fontColor=#000000;exitX=0.5;exitY=0;exitDx=0;exitDy=0;entryX=0.558;entryY=1.025;entryDx=0;entryDy=0;entryPerimeter=0;strokeColor=#000000;" parent="1" source="45" target="47" edge="1">
                    <mxGeometry width="160" relative="1" as="geometry">
                        <mxPoint x="770" y="870" as="sourcePoint"/>
                        <mxPoint x="930" y="870" as="targetPoint"/>
                    </mxGeometry>
                </mxCell>
                <mxCell id="49" value="Gestion des avis clients" style="ellipse;whiteSpace=wrap;html=1;strokeColor=#FF66FF;fontFamily=Tahoma;fontSize=14;fontColor=#000000;fillColor=#FF66FF;" parent="1" vertex="1">
                    <mxGeometry x="420" y="1280" width="120" height="80" as="geometry"/>
                </mxCell>
                <mxCell id="50" value="" style="endArrow=none;html=1;fontFamily=Tahoma;fontSize=14;fontColor=#f6eeee;exitX=1;exitY=0.5;exitDx=0;exitDy=0;entryX=1;entryY=1;entryDx=0;entryDy=0;entryPerimeter=0;strokeColor=#000000;" parent="1" source="49" target="42" edge="1">
                    <mxGeometry width="50" height="50" relative="1" as="geometry">
                        <mxPoint x="820" y="880" as="sourcePoint"/>
                        <mxPoint x="870" y="830" as="targetPoint"/>
                    </mxGeometry>
                </mxCell>
                <mxCell id="51" value="- Ajouter&lt;br&gt;- Vérifier&lt;br&gt;- Publier" style="ellipse;whiteSpace=wrap;html=1;strokeColor=#FF66FF;fontFamily=Tahoma;fontSize=14;fontColor=#000000;fillColor=#FF66FF;" parent="1" vertex="1">
                    <mxGeometry x="420" y="1500" width="120" height="80" as="geometry"/>
                </mxCell>
                <mxCell id="52" value="&amp;lt;&amp;lt;extend&amp;gt;&amp;gt;" style="html=1;verticalAlign=bottom;labelBackgroundColor=none;endArrow=open;endFill=0;dashed=1;fontFamily=Tahoma;fontSize=14;fontColor=#000000;entryX=0.5;entryY=0;entryDx=0;entryDy=0;exitX=0.5;exitY=1;exitDx=0;exitDy=0;strokeColor=#000000;" parent="1" source="49" target="51" edge="1">
                    <mxGeometry width="160" relative="1" as="geometry">
                        <mxPoint x="730" y="1220" as="sourcePoint"/>
                        <mxPoint x="930" y="1040" as="targetPoint"/>
                    </mxGeometry>
                </mxCell>
                <mxCell id="53" value="&amp;lt;&amp;lt;include&amp;gt;&amp;gt;" style="html=1;verticalAlign=bottom;labelBackgroundColor=none;endArrow=open;endFill=0;dashed=1;fontFamily=Tahoma;fontSize=14;fontColor=#000000;exitX=0;exitY=0;exitDx=0;exitDy=0;entryX=1;entryY=1;entryDx=0;entryDy=0;strokeColor=#000000;" parent="1" source="45" target="33" edge="1">
                    <mxGeometry width="160" relative="1" as="geometry">
                        <mxPoint x="330" y="840" as="sourcePoint"/>
                        <mxPoint x="490" y="840" as="targetPoint"/>
                    </mxGeometry>
                </mxCell>
                <mxCell id="54" value="&amp;lt;&amp;lt;include&amp;gt;&amp;gt;" style="html=1;verticalAlign=bottom;labelBackgroundColor=none;endArrow=open;endFill=0;dashed=1;fontFamily=Tahoma;fontSize=14;fontColor=#000000;exitX=0;exitY=0;exitDx=0;exitDy=0;entryX=0.46;entryY=0.991;entryDx=0;entryDy=0;entryPerimeter=0;strokeColor=#000000;" parent="1" source="49" target="33" edge="1">
                    <mxGeometry width="160" relative="1" as="geometry">
                        <mxPoint x="330" y="840" as="sourcePoint"/>
                        <mxPoint x="490" y="840" as="targetPoint"/>
                    </mxGeometry>
                </mxCell>
                <mxCell id="56" value="&amp;lt;&amp;lt;include&amp;gt;&amp;gt;" style="html=1;verticalAlign=bottom;labelBackgroundColor=none;endArrow=open;endFill=0;dashed=1;fontFamily=Tahoma;fontSize=14;fontColor=#000000;exitX=0;exitY=1;exitDx=0;exitDy=0;entryX=1;entryY=0.5;entryDx=0;entryDy=0;strokeColor=#000000;" parent="1" source="35" target="33" edge="1">
                    <mxGeometry width="160" relative="1" as="geometry">
                        <mxPoint x="430" y="440" as="sourcePoint"/>
                        <mxPoint x="590" y="440" as="targetPoint"/>
                    </mxGeometry>
                </mxCell>
                <mxCell id="57" value="&amp;lt;&amp;lt;include&amp;gt;&amp;gt;" style="html=1;verticalAlign=bottom;labelBackgroundColor=none;endArrow=open;endFill=0;dashed=1;fontFamily=Tahoma;fontSize=14;fontColor=#000000;exitX=0;exitY=0.5;exitDx=0;exitDy=0;entryX=1;entryY=0;entryDx=0;entryDy=0;strokeColor=#000000;" parent="1" source="37" target="33" edge="1">
                    <mxGeometry width="160" relative="1" as="geometry">
                        <mxPoint x="430" y="440" as="sourcePoint"/>
                        <mxPoint x="590" y="440" as="targetPoint"/>
                    </mxGeometry>
                </mxCell>
                <mxCell id="58" value="Connexion avec une adresse mail et un mot de passe" style="ellipse;whiteSpace=wrap;html=1;strokeColor=#6F0000;fontFamily=Tahoma;fontSize=14;fontColor=#000000;fillColor=#a20025;" parent="1" vertex="1">
                    <mxGeometry x="30" y="100" width="160" height="120" as="geometry"/>
                </mxCell>
                <mxCell id="59" value="&amp;lt;&amp;lt;include&amp;gt;&amp;gt;" style="html=1;verticalAlign=bottom;labelBackgroundColor=none;endArrow=open;endFill=0;dashed=1;fontFamily=Tahoma;fontSize=14;fontColor=#000000;exitX=0;exitY=0;exitDx=0;exitDy=0;entryX=0.5;entryY=1;entryDx=0;entryDy=0;strokeColor=#000000;" parent="1" source="33" target="58" edge="1">
                    <mxGeometry width="160" relative="1" as="geometry">
                        <mxPoint x="100" y="410" as="sourcePoint"/>
                        <mxPoint x="260" y="410" as="targetPoint"/>
                    </mxGeometry>
                </mxCell>
                <mxCell id="65" value="" style="endArrow=none;dashed=1;html=1;fontFamily=Tahoma;fontSize=14;fontColor=#000000;entryX=1;entryY=0.571;entryDx=0;entryDy=0;entryPerimeter=0;strokeColor=#000000;" parent="1" target="77" edge="1">
                    <mxGeometry width="50" height="50" relative="1" as="geometry">
                        <mxPoint x="440" y="1420" as="sourcePoint"/>
                        <mxPoint x="360" y="1432.5" as="targetPoint"/>
                    </mxGeometry>
                </mxCell>
                <mxCell id="66" value="" style="endArrow=none;dashed=1;html=1;fontFamily=Tahoma;fontSize=14;fontColor=#000000;entryX=0;entryY=0.5;entryDx=0;entryDy=0;entryPerimeter=0;strokeColor=#000000;" parent="1" edge="1">
                    <mxGeometry width="50" height="50" relative="1" as="geometry">
                        <mxPoint x="660" y="1050" as="sourcePoint"/>
                        <mxPoint x="780" y="1040" as="targetPoint"/>
                    </mxGeometry>
                </mxCell>
                <mxCell id="68" value="" style="endArrow=none;dashed=1;html=1;fontFamily=Tahoma;fontSize=14;fontColor=#000000;entryX=0.115;entryY=-0.08;entryDx=0;entryDy=0;entryPerimeter=0;strokeColor=#000000;" parent="1" target="73" edge="1">
                    <mxGeometry width="50" height="50" relative="1" as="geometry">
                        <mxPoint x="640" y="420" as="sourcePoint"/>
                        <mxPoint x="670" y="440" as="targetPoint"/>
                    </mxGeometry>
                </mxCell>
                <mxCell id="69" value="" style="endArrow=none;dashed=1;html=1;fontFamily=Tahoma;fontSize=14;fontColor=#000000;entryX=0.45;entryY=1.013;entryDx=0;entryDy=0;entryPerimeter=0;strokeColor=#000000;" parent="1" target="72" edge="1">
                    <mxGeometry width="50" height="50" relative="1" as="geometry">
                        <mxPoint x="730" y="670" as="sourcePoint"/>
                        <mxPoint x="830" y="560" as="targetPoint"/>
                    </mxGeometry>
                </mxCell>
                <mxCell id="70" value="Extension point : Remplir le formulaire" style="shape=note2;boundedLbl=1;whiteSpace=wrap;html=1;size=25;verticalAlign=top;align=left;spacingLeft=5;fillColor=#FFE6CC;strokeColor=#b46504;fontColor=#000000;" parent="1" vertex="1">
                    <mxGeometry x="-620" y="370" width="330" height="60" as="geometry"/>
                </mxCell>
                <mxCell id="71" value="Extend condition : Avoir trouver un véhicule intéressant" style="resizeWidth=1;part=1;strokeColor=none;fillColor=none;align=left;spacingLeft=5;fontColor=#000000;" parent="70" vertex="1">
                    <mxGeometry width="302.5" height="25" relative="1" as="geometry"/>
                </mxCell>
                <mxCell id="72" value="Extension point : Pouvoir les ajouter, les modifier et les supprimer" style="shape=note2;boundedLbl=1;whiteSpace=wrap;html=1;size=25;verticalAlign=top;align=left;spacingLeft=5;fillColor=#99CCFF;strokeColor=#b46504;fontColor=#000000;" parent="1" vertex="1">
                    <mxGeometry x="660" y="460" width="360" height="60" as="geometry"/>
                </mxCell>
                <mxCell id="73" value="Extend condition : Avoir accès à la gestion des horaires&#10;d'ouvertures et à la présentation des services&#10;" style="resizeWidth=1;part=1;strokeColor=none;fillColor=none;align=left;spacingLeft=5;fontColor=#000000;" parent="72" vertex="1">
                    <mxGeometry width="330" height="50" relative="1" as="geometry"/>
                </mxCell>
                <mxCell id="74" value="Extension point : Pouvoir en ajouter, en modifier et en&lt;br&gt;supprimer" style="shape=note2;boundedLbl=1;whiteSpace=wrap;html=1;size=25;verticalAlign=top;align=left;spacingLeft=5;fillColor=#FFCCFF;strokeColor=#b46504;fontColor=#000000;" parent="1" vertex="1">
                    <mxGeometry x="780" y="1000" width="330" height="70" as="geometry"/>
                </mxCell>
                <mxCell id="75" value="Extend condition : Avoir accès à la gestion des &#10;véhicules d'occasion" style="resizeWidth=1;part=1;strokeColor=none;fillColor=none;align=left;spacingLeft=5;fontColor=#000000;" parent="74" vertex="1">
                    <mxGeometry width="302.5" height="30" relative="1" as="geometry"/>
                </mxCell>
                <mxCell id="77" value="Extension point : Vérifier les avis avant de les publier" style="shape=note2;boundedLbl=1;whiteSpace=wrap;html=1;size=25;verticalAlign=top;align=left;spacingLeft=5;fillColor=#FFCCFF;strokeColor=#b46504;fontColor=#000000;" parent="1" vertex="1">
                    <mxGeometry x="20" y="1410" width="330" height="60" as="geometry"/>
                </mxCell>
                <mxCell id="78" value="Extend condition : Avoir accès à la gestion des &#10;avis clients" style="resizeWidth=1;part=1;strokeColor=none;fillColor=none;align=left;spacingLeft=5;fontColor=#000000;" parent="77" vertex="1">
                    <mxGeometry width="302.5" height="30" relative="1" as="geometry"/>
                </mxCell>
                <mxCell id="79" value="&lt;span style=&quot;color: rgb(51, 51, 51); font-family: Tahoma; font-size: 20px;&quot;&gt;Diagramme de cas d'utilisation -&amp;nbsp;&lt;/span&gt;&lt;b style=&quot;color: rgb(51, 51, 51); font-family: Tahoma; font-size: 20px;&quot;&gt;Garage Vincent Parrot&lt;/b&gt;" style="rounded=0;whiteSpace=wrap;html=1;fillColor=none;" vertex="1" parent="1">
                    <mxGeometry x="-330" y="10" width="620" height="60" as="geometry"/>
                </mxCell>
            </root>
        </mxGraphModel>
    </diagram>
</mxfile>